<svg width="73" height="14" viewBox="0 0 73 14" fill="none" xmlns="http://www.w3.org/2000/svg">
<path d="M6.81055 7.96387C6.81055 8.66113 6.67871 9.31738 6.41504 9.93262C6.15137 10.542 5.79102 11.0752 5.33398 11.5322C4.88281 11.9834 4.34961 12.3408 3.73438 12.6045C3.125 12.8682 2.47168 13 1.77441 13C1.35254 13 0.930664 12.9473 0.508789 12.8418V10.1348C0.696289 10.2461 0.898438 10.3311 1.11523 10.3896C1.33203 10.4482 1.55176 10.4775 1.77441 10.4775C2.12012 10.4775 2.44531 10.4131 2.75 10.2842C3.06055 10.1494 3.33008 9.96777 3.55859 9.73926C3.78711 9.51074 3.96582 9.24414 4.09473 8.93945C4.22949 8.63477 4.29688 8.30957 4.29688 7.96387V0.396484H6.81055V7.96387ZM18.9482 7.96387C18.9482 8.66113 18.8164 9.31738 18.5527 9.93262C18.2891 10.542 17.9287 11.0752 17.4717 11.5322C17.0146 11.9834 16.4785 12.3408 15.8633 12.6045C15.2539 12.8682 14.6006 13 13.9033 13C13.2061 13 12.5498 12.8682 11.9346 12.6045C11.3252 12.3408 10.792 11.9834 10.335 11.5322C9.88379 11.0752 9.52637 10.542 9.2627 9.93262C8.99902 9.31738 8.86719 8.66113 8.86719 7.96387V0.396484H11.3809V7.96387C11.3809 8.30957 11.4453 8.63477 11.5742 8.93945C11.709 9.24414 11.8906 9.51074 12.1191 9.73926C12.3477 9.96777 12.6143 10.1494 12.9189 10.2842C13.2295 10.4131 13.5576 10.4775 13.9033 10.4775C14.249 10.4775 14.5742 10.4131 14.8789 10.2842C15.1895 10.1494 15.459 9.96777 15.6875 9.73926C15.916 9.51074 16.0947 9.24414 16.2236 8.93945C16.3584 8.63477 16.4258 8.30957 16.4258 7.96387V0.396484H18.9482V7.96387ZM31.2178 13H28.5195L23.6592 4.70312V13H21.1367V0.396484H23.835L28.6953 8.70215V0.396484H31.2178V13ZM36.0869 13H33.5645V0.396484H36.0869V13ZM45.8516 7.96387V5.44141C45.8516 5.0957 45.7842 4.77051 45.6494 4.46582C45.5205 4.15527 45.3418 3.88574 45.1133 3.65723C44.8848 3.42871 44.6152 3.25 44.3047 3.12109C44 2.98633 43.6748 2.91895 43.3291 2.91895C42.9834 2.91895 42.6553 2.98633 42.3447 3.12109C42.04 3.25 41.7734 3.42871 41.5449 3.65723C41.3164 3.88574 41.1348 4.15527 41 4.46582C40.8711 4.77051 40.8066 5.0957 40.8066 5.44141V7.96387H45.8516ZM48.374 13H45.8516V10.4775H40.8066V13H38.293V5.44141C38.293 4.74414 38.4248 4.09082 38.6885 3.48145C38.9521 2.86621 39.3096 2.33008 39.7607 1.87305C40.2178 1.41602 40.751 1.05566 41.3604 0.791992C41.9756 0.52832 42.6318 0.396484 43.3291 0.396484C44.0264 0.396484 44.6797 0.52832 45.2891 0.791992C45.9043 1.05566 46.4404 1.41602 46.8975 1.87305C47.3545 2.33008 47.7148 2.86621 47.9785 3.48145C48.2422 4.09082 48.374 4.74414 48.374 5.44141V13ZM53.085 2.91895V7.96387H55.6074C55.9531 7.96387 56.2783 7.89941 56.583 7.77051C56.8877 7.63574 57.1543 7.4541 57.3828 7.22559C57.6113 6.99707 57.79 6.73047 57.9189 6.42578C58.0537 6.11523 58.1211 5.78711 58.1211 5.44141C58.1211 5.0957 58.0537 4.77051 57.9189 4.46582C57.79 4.15527 57.6113 3.88574 57.3828 3.65723C57.1543 3.42871 56.8877 3.25 56.583 3.12109C56.2783 2.98633 55.9531 2.91895 55.6074 2.91895H53.085ZM53.085 13H50.5625V0.396484H55.6074C56.0703 0.396484 56.5156 0.458008 56.9434 0.581055C57.3711 0.698242 57.7695 0.868164 58.1387 1.09082C58.5137 1.30762 58.8535 1.57129 59.1582 1.88184C59.4688 2.18652 59.7324 2.52637 59.9492 2.90137C60.1719 3.27637 60.3418 3.67773 60.459 4.10547C60.582 4.5332 60.6436 4.97852 60.6436 5.44141C60.6436 5.875 60.5879 6.29688 60.4766 6.70703C60.3711 7.11719 60.2158 7.50684 60.0107 7.87598C59.8115 8.24512 59.5654 8.58496 59.2725 8.89551C58.9795 9.20605 58.6514 9.47559 58.2881 9.7041L59.6855 13H57.0049L55.9062 10.46L53.085 10.4775V13ZM72.3682 11.708C71.7822 12.2119 71.126 12.5986 70.3994 12.8682C69.6729 13.1377 68.9199 13.2725 68.1406 13.2725C67.543 13.2725 66.9658 13.1934 66.4092 13.0352C65.8584 12.8828 65.3398 12.666 64.8535 12.3848C64.373 12.0977 63.9336 11.7549 63.5352 11.3564C63.1367 10.958 62.7939 10.5186 62.5068 10.0381C62.2256 9.55176 62.0059 9.0332 61.8477 8.48242C61.6953 7.92578 61.6191 7.34863 61.6191 6.75098C61.6191 6.15332 61.6953 5.57617 61.8477 5.01953C62.0059 4.46289 62.2256 3.94434 62.5068 3.46387C62.7939 2.97754 63.1367 2.53516 63.5352 2.13672C63.9336 1.73828 64.373 1.39844 64.8535 1.11719C65.3398 0.830078 65.8584 0.610352 66.4092 0.458008C66.9658 0.299805 67.543 0.220703 68.1406 0.220703C68.9199 0.220703 69.6729 0.355469 70.3994 0.625C71.126 0.888672 71.7822 1.27539 72.3682 1.78516L71.0322 3.98242C70.6631 3.58398 70.2266 3.2793 69.7227 3.06836C69.2188 2.85156 68.6914 2.74316 68.1406 2.74316C67.584 2.74316 67.0625 2.84863 66.5762 3.05957C66.0898 3.27051 65.665 3.55762 65.3018 3.9209C64.9385 4.27832 64.6514 4.70312 64.4404 5.19531C64.2295 5.68164 64.124 6.2002 64.124 6.75098C64.124 7.30176 64.2295 7.82031 64.4404 8.30664C64.6514 8.78711 64.9385 9.20898 65.3018 9.57227C65.665 9.93555 66.0898 10.2227 66.5762 10.4336C67.0625 10.6445 67.584 10.75 68.1406 10.75C68.6914 10.75 69.2188 10.6445 69.7227 10.4336C70.2266 10.2168 70.6631 9.90918 71.0322 9.51074L72.3682 11.708Z" fill="#263253"/>
</svg>
